<svg width="28" height="29" viewBox="0 0 28 29" fill="none" xmlns="http://www.w3.org/2000/svg">
<path d="M22.9382 14.3389C22.4251 13.7372 22.0109 13.0576 21.7112 12.3258C21.4858 11.7561 21.3721 11.1485 21.3762 10.5359V10.3148C21.3762 8.21006 20.5402 6.19154 19.0519 4.70325C17.5636 3.21496 15.5449 2.37891 13.4402 2.37891C11.3349 2.37891 9.31592 3.21519 7.82726 4.70386C6.3386 6.19252 5.50219 8.21161 5.50219 10.3169V10.5399C5.50634 11.1491 5.39327 11.7533 5.16918 12.3198C4.86936 13.0535 4.45448 13.7348 3.94017 14.3379C3.63539 14.8468 3.43402 15.4107 3.34752 15.9976C3.26103 16.5844 3.29115 17.1825 3.43615 17.7577C3.58115 18.3329 3.83814 18.8738 4.19249 19.3495C4.54685 19.8252 4.99161 20.2263 5.50121 20.5299C5.50693 20.5345 5.51339 20.5382 5.52025 20.5409L5.57421 20.5719C5.70604 20.6409 5.8423 20.701 5.98217 20.7518C6.03617 20.7728 6.0972 20.7949 6.1632 20.8179C6.35315 20.8884 6.54722 20.9475 6.74425 20.9949C6.78225 21.0029 6.81917 21.0139 6.85717 21.0189H6.86522L7.09227 21.0729C7.25127 21.1089 7.42322 21.1438 7.61022 21.1798L7.90221 21.2318C8.10221 21.2658 8.32322 21.2999 8.55822 21.3319C8.79322 21.3639 9.04422 21.3949 9.31322 21.4229C10.684 21.5592 12.0607 21.6259 13.4382 21.6228C14.2382 21.6228 14.9602 21.6109 15.6152 21.5829C16.7602 21.5329 17.6923 21.4428 18.4473 21.3348C18.7703 21.2888 19.0623 21.2349 19.3223 21.1879C20.0417 21.0981 20.738 20.8745 21.3752 20.5288C21.8848 20.2255 22.3296 19.8247 22.6841 19.3492C23.0385 18.8738 23.2957 18.333 23.4409 17.7581C23.5861 17.1831 23.6164 16.5851 23.5301 15.9984C23.4439 15.4117 23.2427 14.8477 22.9382 14.3389Z" fill="#D3D1D8"/>
<path d="M16.541 23.3058C15.552 22.934 14.4956 22.7751 13.441 22.8397C12.3864 22.7752 11.3301 22.9341 10.341 23.3058C10.1846 23.3981 10.0603 23.5362 9.98497 23.7015C9.90967 23.8667 9.88704 24.0512 9.92003 24.2298C10.0857 24.738 10.3878 25.1908 10.7934 25.5389C11.1991 25.8871 11.6925 26.1171 12.22 26.2038C13.0215 26.421 13.8664 26.421 14.668 26.2038C15.1955 26.1173 15.6891 25.8873 16.0947 25.5392C16.5004 25.191 16.8025 24.7381 16.968 24.2298C17.0006 24.0506 16.977 23.8656 16.9006 23.7003C16.8242 23.5349 16.6986 23.3971 16.541 23.3058Z" fill="#D3D1D8"/>
</svg>
