<svg width="22" height="25" viewBox="0 0 22 25" fill="none" xmlns="http://www.w3.org/2000/svg">
<path d="M20.9723 10.8077C20.864 9.84234 20.4166 8.9466 19.71 8.27996C19.0033 7.61331 18.0833 7.21898 17.1132 7.16696V6.88317C17.1141 6.07571 16.9553 5.27614 16.6462 4.53019C16.3371 3.78425 15.8836 3.10668 15.3118 2.53658C14.7413 1.96474 14.0633 1.5113 13.317 1.20219C12.5707 0.893075 11.7707 0.734412 10.9629 0.735356C9.33226 0.735953 7.76865 1.38396 6.61561 2.53699C5.46258 3.69002 4.81457 5.25377 4.81398 6.88441V7.17135C3.8568 7.23938 2.95353 7.64066 2.26146 8.30538C1.56939 8.9701 1.13228 9.85629 1.02574 10.8099L0 20.154C0.00506676 21.4068 0.507103 22.6065 1.39596 23.4894C2.28481 24.3723 3.48801 24.8664 4.74087 24.8631H17.2594C18.5123 24.8664 19.7152 24.3723 20.604 23.4894C21.4929 22.6065 21.9949 21.4068 22 20.154L20.9723 10.8077ZM6.61973 6.89444C6.61959 6.32413 6.73168 5.75937 6.94983 5.23243C7.16797 4.70549 7.48797 4.22674 7.89118 3.82342C8.2944 3.4201 8.7729 3.10007 9.29978 2.88179C9.82667 2.6635 10.3915 2.55128 10.9618 2.55128C11.5322 2.55073 12.0971 2.6628 12.6241 2.8811C13.1511 3.0994 13.63 3.41952 14.033 3.82328C14.4369 4.22616 14.7572 4.70486 14.9757 5.23188C15.1942 5.75891 15.3065 6.32392 15.3061 6.89444V7.15789H6.61973V6.89444ZM7.47644 13.2822C7.33314 13.2824 7.19109 13.2542 7.05867 13.1995C6.92625 13.1447 6.80599 13.0643 6.70466 12.963C6.60334 12.8616 6.52306 12.7414 6.46829 12.609C6.41352 12.4765 6.38541 12.3346 6.38556 12.1913C6.38541 12.048 6.41352 11.9061 6.46829 11.7737C6.52306 11.6413 6.60334 11.5209 6.70466 11.4196C6.80599 11.3182 6.92625 11.238 7.05867 11.1832C7.19109 11.1284 7.33314 11.1003 7.47644 11.1005C7.61994 11.1002 7.76208 11.1281 7.89476 11.1828C8.02743 11.2374 8.14796 11.3177 8.24959 11.419C8.35121 11.5203 8.43197 11.6406 8.48706 11.7731C8.54214 11.9057 8.57046 12.0478 8.57061 12.1913C8.57046 12.3348 8.54214 12.4769 8.48706 12.6094C8.43197 12.7419 8.35121 12.8622 8.24959 12.9635C8.14796 13.0648 8.02743 13.1451 7.89476 13.1998C7.76208 13.2544 7.61994 13.2825 7.47644 13.2822ZM14.526 13.2822C14.3825 13.2825 14.2404 13.2544 14.1077 13.1998C13.975 13.1451 13.8545 13.0648 13.7529 12.9635C13.6513 12.8622 13.5705 12.7419 13.5154 12.6094C13.4603 12.4769 13.432 12.3348 13.4319 12.1913C13.432 12.0478 13.4603 11.9057 13.5154 11.7731C13.5705 11.6406 13.6513 11.5203 13.7529 11.419C13.8545 11.3177 13.975 11.2374 14.1077 11.1828C14.2404 11.1281 14.3825 11.1002 14.526 11.1005C14.6693 11.1003 14.8111 11.1284 14.9435 11.1832C15.0759 11.238 15.1965 11.3182 15.2978 11.4196C15.3991 11.5209 15.4794 11.6413 15.5342 11.7737C15.589 11.9061 15.6171 12.048 15.6169 12.1913C15.6171 12.3346 15.589 12.4765 15.5342 12.609C15.4794 12.7414 15.3991 12.8616 15.2978 12.963C15.1965 13.0643 15.0759 13.1447 14.9435 13.1995C14.8111 13.2542 14.6693 13.2824 14.526 13.2822Z" fill="#FE724C"/>
</svg>
