<svg width="8" height="9" viewBox="0 0 8 9" fill="none" xmlns="http://www.w3.org/2000/svg">
<path d="M3.32262 8.79266C3.09771 8.79273 2.87337 8.77012 2.65299 8.72519C2.22803 8.63814 1.82437 8.46827 1.46504 8.22527C0.930831 7.86463 0.512677 7.35681 0.261242 6.76333C0.17624 6.56236 0.111346 6.35347 0.0675094 6.13971C-0.0225032 5.69783 -0.0225032 5.24233 0.0675094 4.80045C0.154555 4.37549 0.324427 3.97183 0.56743 3.6125C0.928066 3.07829 1.43589 2.66014 2.02937 2.4087C2.23034 2.3237 2.43923 2.25881 2.65299 2.21497C3.09487 2.12496 3.55037 2.12496 3.99225 2.21497C4.41721 2.30202 4.82087 2.47189 5.1802 2.71489C5.71441 3.07553 6.13256 3.58335 6.384 4.17683C6.469 4.3778 6.53389 4.58669 6.57773 4.80045C6.66624 5.23529 6.66763 5.68337 6.58182 6.11875C6.50822 6.49324 6.36983 6.852 6.17288 7.17891C5.87793 7.67143 5.46026 8.07903 4.96068 8.36187C4.46111 8.64472 3.89671 8.79315 3.32262 8.79266ZM4.46712 3.91358C4.41328 3.91353 4.35996 3.92412 4.31023 3.94474C4.26049 3.96535 4.21531 3.99558 4.17729 4.0337L3.01592 5.19354C2.93898 5.27061 2.89581 5.37509 2.89591 5.48399C2.89601 5.59289 2.93936 5.69729 3.01643 5.77422C3.0935 5.85116 3.19798 5.89433 3.30688 5.89423C3.41578 5.89414 3.52018 5.85078 3.59712 5.77371L4.17729 5.19354L4.75746 4.61388C4.81546 4.55676 4.85509 4.48365 4.87129 4.40388C4.88749 4.32411 4.87951 4.24133 4.84839 4.16612C4.81726 4.09091 4.7644 4.0267 4.69657 3.98171C4.62874 3.93672 4.54902 3.913 4.46763 3.91358H4.46712Z" fill="url(#paint0_linear_162_731)"/>
<path d="M1.69629 0.533282C1.69629 0.418047 1.74207 0.307533 1.82355 0.22605C1.90503 0.144567 2.01555 0.0987901 2.13078 0.0987901L4.73773 0.0987901C4.85296 0.0987901 4.96348 0.144567 5.04496 0.22605C5.12645 0.307533 5.17222 0.418047 5.17222 0.533282C5.17222 0.648516 5.12645 0.759031 5.04496 0.840514C4.96348 0.921997 4.85296 0.967773 4.73773 0.967773L2.13078 0.967773C2.01555 0.967773 1.90503 0.921997 1.82355 0.840514C1.74207 0.759031 1.69629 0.648516 1.69629 0.533282V0.533282Z" fill="url(#paint1_linear_162_731)"/>
<path d="M6.15573 1.34476C6.2399 1.26059 6.35405 1.21331 6.47308 1.21331C6.59211 1.21331 6.70627 1.26059 6.79044 1.34476L7.3637 1.91802C7.44786 2.00218 7.49515 2.11634 7.49515 2.23537C7.49515 2.3544 7.44786 2.46855 7.3637 2.55272C7.27953 2.63689 7.16537 2.68417 7.04634 2.68417C6.92731 2.68417 6.81316 2.63689 6.72899 2.55272L6.15573 1.97946C6.07156 1.89529 6.02428 1.78114 6.02428 1.66211C6.02428 1.54308 6.07156 1.42892 6.15573 1.34476Z" fill="url(#paint2_linear_162_731)"/>
<defs>
<linearGradient id="paint0_linear_162_731" x1="3.32258" y1="2.14746" x2="3.32258" y2="8.79266" gradientUnits="userSpaceOnUse">
<stop stop-color="#FE724C"/>
<stop offset="1" stop-color="#FCA892"/>
</linearGradient>
<linearGradient id="paint1_linear_162_731" x1="1.69629" y1="0.533282" x2="5.17222" y2="0.533282" gradientUnits="userSpaceOnUse">
<stop stop-color="#FE724C"/>
<stop offset="1" stop-color="#FCA892"/>
</linearGradient>
<linearGradient id="paint2_linear_162_731" x1="6.15573" y1="1.34476" x2="7.3637" y2="2.55272" gradientUnits="userSpaceOnUse">
<stop stop-color="#FE724C"/>
<stop offset="1" stop-color="#FCA892"/>
</linearGradient>
</defs>
</svg>
