<svg width="28" height="27" viewBox="0 0 28 27" fill="none" xmlns="http://www.w3.org/2000/svg">
<path d="M13.9692 1.33203C10.8251 1.33203 7.80967 2.58108 5.58643 4.80432C3.36318 7.02757 2.11426 10.0429 2.11426 13.1871C2.11426 16.3312 3.36318 19.3466 5.58643 21.5698C7.80967 23.7931 10.8251 25.0421 13.9692 25.0421C17.1134 25.0421 20.1288 23.7931 22.3521 21.5698C24.5753 19.3466 25.8242 16.3312 25.8242 13.1871C25.8242 10.0429 24.5753 7.02757 22.3521 4.80432C20.1288 2.58108 17.1134 1.33203 13.9692 1.33203ZM18.4033 9.68005L16.7163 15.423C16.6813 15.543 16.6166 15.6522 16.5283 15.7406C16.4401 15.829 16.331 15.8938 16.2112 15.9291L10.4631 17.621C10.3335 17.6592 10.1962 17.6616 10.0654 17.6279C9.93461 17.5941 9.81538 17.5255 9.72046 17.4294C9.62554 17.3332 9.55844 17.2131 9.52637 17.0818C9.4943 16.9506 9.49845 16.8132 9.53833 16.6841L11.2942 11.001C11.33 10.8849 11.3936 10.7793 11.4795 10.6934C11.5654 10.6075 11.6712 10.5439 11.7874 10.5081L17.4663 8.75708C17.5952 8.71739 17.7323 8.7133 17.8633 8.7453C17.9943 8.7773 18.1141 8.84415 18.2102 8.93878C18.3063 9.03342 18.375 9.15233 18.4089 9.28284C18.4429 9.41334 18.4411 9.55059 18.4033 9.68005Z" fill="#FE724C"/>
</svg>
