<svg width="10" height="9" viewBox="0 0 10 9" fill="none" xmlns="http://www.w3.org/2000/svg">
<path d="M3.54338 4.25375C3.54773 3.77615 3.67603 3.30787 3.91572 2.89476C4.15542 2.48164 4.49828 2.13786 4.91075 1.89706C4.99285 1.83219 5.09035 1.78969 5.19375 1.77371C5.29716 1.75773 5.40293 1.7688 5.50078 1.80586C5.59863 1.84291 5.6852 1.90469 5.75208 1.98516C5.81896 2.06563 5.86386 2.16204 5.8824 2.26502C5.98335 2.56131 6.10549 2.85054 6.20341 3.14784C6.22952 3.23709 6.27875 3.31783 6.34612 3.38192C6.41348 3.44601 6.4966 3.49116 6.58703 3.51278C6.88686 3.59909 7.18668 3.68439 7.48498 3.77424C7.52419 3.78165 7.56151 3.7968 7.59478 3.81882C7.62805 3.84084 7.65659 3.86927 7.67873 3.90246C7.70088 3.93565 7.71619 3.97292 7.72374 4.01209C7.7313 4.05127 7.73094 4.09155 7.72273 4.13059C7.71816 4.17272 7.70463 4.21339 7.68302 4.24984C7.6614 4.28628 7.63221 4.31767 7.59743 4.34187C7.56265 4.36608 7.52307 4.38255 7.48138 4.39016C7.43969 4.39778 7.39687 4.39636 7.35578 4.38601C7.05545 4.34411 6.75612 4.29716 6.45832 4.23962C6.23501 4.20616 6.02327 4.11862 5.84152 3.98464C5.65977 3.85066 5.51353 3.67429 5.41551 3.47088C5.36503 3.36993 5.30344 3.27352 5.23731 3.15844C5.00519 3.38463 4.84925 3.67748 4.79113 3.99633C4.75428 4.14271 4.79111 4.21236 4.93648 4.26233C5.36855 4.41022 5.79759 4.56821 6.22461 4.73074C6.30966 4.75118 6.38821 4.79272 6.45299 4.85151C6.51776 4.9103 6.56669 4.98445 6.59526 5.06713C6.62382 5.14981 6.63109 5.23836 6.61642 5.32459C6.60175 5.41083 6.5656 5.49198 6.51131 5.56057C6.29729 5.91389 6.06815 6.25813 5.84152 6.60388C5.681 6.84869 5.67798 6.84667 5.84152 7.09501C5.85161 7.11015 5.86927 7.1258 5.86927 7.14094C5.86927 7.22221 5.894 7.32923 5.85261 7.37768C5.82215 7.4077 5.78517 7.43025 5.74453 7.44356C5.7039 7.45688 5.66072 7.46058 5.61841 7.45439C5.40061 7.3927 5.18743 7.3158 4.98041 7.22423C4.94014 7.21109 4.90335 7.18907 4.87274 7.15979C4.84212 7.13052 4.81847 7.09475 4.80354 7.05511C4.78862 7.01547 4.7828 6.97298 4.7865 6.93079C4.79021 6.88859 4.80335 6.84778 4.82495 6.81134C4.98345 6.43009 5.14242 6.04883 5.30192 5.66758C5.31504 5.63578 5.32464 5.60296 5.33827 5.56662C5.00059 5.46567 4.6705 5.36774 4.34392 5.26376C4.20019 5.22387 4.06174 5.16693 3.93153 5.09417C3.79418 5.00493 3.68486 4.87868 3.61618 4.72997C3.5475 4.58127 3.52227 4.41618 3.54338 4.25375Z" fill="url(#paint0_linear_162_722)"/>
<path d="M2.7676 4.71105C2.47333 4.71459 2.17855 4.70803 1.88428 4.71409C1.76232 4.71673 1.64092 4.73144 1.52186 4.758C1.27159 4.81088 1.04084 4.932 0.855178 5.10795C0.669514 5.2839 0.536187 5.50782 0.469958 5.7549L0.36398 6.07238L0.300393 6.06481C0.206815 5.84684 0.172044 5.60813 0.19959 5.37253C0.227136 5.13692 0.315992 4.91266 0.457327 4.72216C0.173656 4.66108 0.0328534 4.52733 0.0278058 4.29717C0.0143457 3.70189 0.00528285 3.10645 0.000571811 2.51084C-0.00240929 2.45485 0.00628823 2.39885 0.0261422 2.34641C0.0459962 2.29396 0.0765374 2.24623 0.115854 2.20625C0.155171 2.16626 0.202387 2.13491 0.254489 2.11418C0.306591 2.09345 0.36241 2.08379 0.418448 2.08583C1.03896 2.08011 1.65953 2.08011 2.28004 2.08583C2.40196 2.08578 2.51976 2.12987 2.61171 2.20994C2.70366 2.29001 2.76353 2.40066 2.78023 2.52144C2.89329 3.10965 3.00483 3.69853 3.11486 4.28808C3.12979 4.33983 3.1319 4.39443 3.12103 4.44718C3.11015 4.49994 3.08662 4.54924 3.05245 4.59087C3.01827 4.6325 2.97447 4.66519 2.92484 4.68613C2.87522 4.70707 2.82127 4.71562 2.7676 4.71105Z" fill="url(#paint1_linear_162_722)"/>
<path d="M7.61432 5.27153C7.70769 5.22459 7.74557 5.17966 7.70569 5.07518C7.67728 4.99296 7.65567 4.90855 7.64109 4.8228C7.61383 4.68853 7.65924 4.59667 7.76019 4.57042C7.87073 4.54064 7.95856 4.60122 7.99541 4.73649C8.02872 4.85814 8.0585 4.9813 8.09282 5.11707C8.21555 5.11024 8.33858 5.11024 8.46131 5.11707C8.76508 5.15461 9.05007 5.28424 9.27799 5.48852C9.50592 5.69281 9.66587 5.96198 9.73632 6.25984C9.80617 6.55834 9.7834 6.87104 9.67104 7.15627C9.55868 7.4415 9.36205 7.68571 9.10738 7.85637C8.85261 8.02481 8.55243 8.11126 8.24711 8.10413C7.94178 8.097 7.64594 7.99663 7.39931 7.81649C7.19358 7.66421 7.03023 7.46183 6.92478 7.22861C6.81933 6.99538 6.77528 6.73907 6.79683 6.48403C6.81838 6.22898 6.9048 5.98368 7.04788 5.77146C7.19097 5.55924 7.38596 5.38714 7.61432 5.27153ZM7.44121 6.92207C7.51956 7.13187 7.67322 7.30498 7.87227 7.40763C8.07132 7.51028 8.30148 7.53512 8.51784 7.4773C8.73912 7.41587 8.92872 7.27257 9.04823 7.07648C9.16774 6.88038 9.2082 6.64617 9.16139 6.42135C9.11881 6.21227 9.0017 6.0258 8.83187 5.89663C8.66203 5.76747 8.45106 5.70442 8.2382 5.71924C8.27808 5.8737 8.31391 6.02562 8.35934 6.17352C8.36691 6.19926 8.40981 6.21693 8.44212 6.23308C8.49454 6.25564 8.5416 6.28905 8.58017 6.33111C8.61874 6.37318 8.64794 6.42295 8.66588 6.47713C8.68381 6.53131 8.69006 6.58867 8.68421 6.64545C8.67835 6.70222 8.66051 6.7571 8.63189 6.80648C8.60473 6.85366 8.56833 6.89488 8.52484 6.92763C8.48134 6.96038 8.43167 6.98399 8.37881 6.99705C8.32595 7.01011 8.271 7.01235 8.21725 7.00363C8.16351 6.99491 8.11209 6.9754 8.06608 6.9463C8.0186 6.91496 7.97814 6.87412 7.94722 6.82636C7.91631 6.77861 7.89562 6.72498 7.88647 6.66883C7.87732 6.61268 7.8799 6.55524 7.89405 6.50014C7.9082 6.44504 7.9336 6.39347 7.96867 6.34867C7.99467 6.30534 8.0045 6.2542 7.99642 6.20431C7.97169 6.07156 7.93332 5.94184 7.89547 5.80051C7.69342 5.89702 7.53479 6.06561 7.45073 6.27315C7.36667 6.48069 7.36327 6.71215 7.44121 6.92207Z" fill="url(#paint2_linear_162_722)"/>
<path d="M2.2154 5.11292C2.41215 5.11036 2.6074 5.14708 2.78978 5.22091C2.97216 5.29475 3.13798 5.40423 3.27753 5.54293C3.41708 5.68164 3.52761 5.84678 3.60255 6.02871C3.6775 6.21064 3.71537 6.40569 3.71402 6.60244C3.71575 6.79909 3.67855 6.99415 3.60459 7.17637C3.53062 7.35859 3.42132 7.52437 3.28302 7.66418C3.14471 7.80399 2.98013 7.91506 2.79872 7.99099C2.61731 8.06692 2.42266 8.10622 2.226 8.10661C2.0293 8.10688 1.83451 8.06825 1.65279 7.99295C1.47107 7.91764 1.306 7.80714 1.16714 7.66782C1.02828 7.52849 0.918351 7.36308 0.843659 7.1811C0.768967 6.99913 0.731019 6.8042 0.73195 6.60749C0.73101 6.21274 0.886647 5.83372 1.16474 5.55355C1.44283 5.27337 1.82066 5.11492 2.2154 5.11292ZM2.2265 7.50948C2.46475 7.50684 2.69246 7.41071 2.86052 7.24181C3.02857 7.0729 3.12353 6.84474 3.12497 6.60648C3.12325 6.36778 3.02764 6.13936 2.85885 5.97057C2.69007 5.80179 2.46168 5.70621 2.22298 5.70449C2.10495 5.70494 1.98817 5.72878 1.87942 5.77465C1.77066 5.82052 1.6721 5.88751 1.58939 5.97171C1.50668 6.05592 1.44149 6.15569 1.39758 6.26525C1.35368 6.37481 1.33196 6.49198 1.33363 6.61C1.33201 6.72789 1.35389 6.84492 1.39801 6.95425C1.44214 7.06358 1.50763 7.16301 1.59062 7.24675C1.67361 7.33049 1.7724 7.39686 1.88133 7.44197C1.99025 7.48708 2.10712 7.51003 2.22502 7.50948H2.2265Z" fill="url(#paint3_linear_162_722)"/>
<path d="M7.45779 1.0235C7.16166 0.966566 6.8692 0.891899 6.58202 0.799894C6.39324 0.743867 6.2923 0.80343 6.31905 0.998265C6.34746 1.16359 6.38435 1.32734 6.42959 1.48888C6.44171 1.55186 6.47158 1.6101 6.51566 1.65669C6.55975 1.70328 6.61623 1.73631 6.67845 1.75188C6.93537 1.82053 7.19277 1.88716 7.45222 1.9452C7.57336 1.97195 7.60366 2.01284 7.52643 2.1148C7.47842 2.19051 7.40771 2.24909 7.3244 2.28218C7.24108 2.31527 7.14943 2.32117 7.06256 2.29903C6.74628 2.22458 6.43574 2.12758 6.13331 2.00879C5.93475 1.92516 5.76727 1.78161 5.65425 1.59818C5.54122 1.41476 5.48828 1.20062 5.50286 0.985665C5.52494 0.861212 5.55788 0.738932 5.60129 0.620224C5.68462 0.4252 5.82657 0.260927 6.00746 0.150221C6.18835 0.0395149 6.39922 -0.0121355 6.6108 0.00240525C6.83849 0.014709 7.05751 0.0937736 7.24054 0.229766C7.42357 0.365759 7.5625 0.552634 7.63999 0.767084C7.7152 0.973024 7.66929 1.05732 7.45779 1.0235Z" fill="url(#paint4_linear_162_722)"/>
<path d="M8.82233 4.79891C8.69634 4.76476 8.57475 4.71614 8.45994 4.65403C8.36471 4.60437 8.28517 4.52923 8.23017 4.43698C8.17518 4.34473 8.1469 4.239 8.1485 4.13161C8.14743 3.96931 8.19658 3.81065 8.2892 3.67737C8.38182 3.54408 8.51337 3.4427 8.66586 3.38711C8.69965 3.36086 8.73906 3.34276 8.78098 3.33422C8.82291 3.32567 8.86624 3.32691 8.9076 3.33785C8.94897 3.34879 8.98724 3.36913 9.01947 3.39728C9.05169 3.42543 9.07701 3.46065 9.09341 3.50018C9.22686 3.71662 9.29128 3.96854 9.27813 4.22248C9.24905 4.36544 9.21028 4.50626 9.16205 4.64394C9.15301 4.67854 9.13638 4.71068 9.11337 4.73805C9.09036 4.76541 9.06155 4.7873 9.02902 4.80214C8.99649 4.81698 8.96107 4.82439 8.92532 4.82383C8.88957 4.82327 8.85438 4.81476 8.82233 4.79891Z" fill="url(#paint5_linear_162_722)"/>
<path d="M6.52678 0.890169C6.54798 0.883607 6.6116 0.94064 6.61513 0.974459C6.61867 1.00828 6.57876 1.05573 6.53737 1.13598C6.48034 1.06178 6.42583 1.0214 6.42936 0.984548C6.4329 0.947701 6.48589 0.900264 6.52678 0.890169Z" fill="url(#paint6_linear_162_722)"/>
<path d="M2.20165 6.20195C2.25708 6.19853 2.31264 6.2064 2.36494 6.22507C2.41723 6.24375 2.46519 6.27283 2.50591 6.31058C2.54664 6.34833 2.57927 6.39396 2.60185 6.4447C2.62442 6.49544 2.63649 6.55022 2.63728 6.60575C2.63705 6.71336 2.59567 6.81681 2.52162 6.89489C2.44758 6.97298 2.34644 7.01978 2.23899 7.0257C2.18454 7.02725 2.13029 7.01802 2.07941 6.99853C2.02853 6.97905 1.98206 6.9497 1.94256 6.91218C1.90307 6.87465 1.87134 6.82969 1.84928 6.77987C1.82722 6.73006 1.81521 6.67637 1.81397 6.62191C1.81133 6.56876 1.8193 6.5156 1.83745 6.46557C1.85559 6.41554 1.88355 6.36965 1.91964 6.33054C1.95574 6.29144 1.99926 6.25992 2.04768 6.23784C2.0961 6.21576 2.14846 6.20356 2.20165 6.20195Z" fill="url(#paint7_linear_162_722)"/>
<defs>
<linearGradient id="paint0_linear_162_722" x1="5.63265" y1="1.7666" x2="5.63265" y2="7.4573" gradientUnits="userSpaceOnUse">
<stop stop-color="#FE724C"/>
<stop offset="1" stop-color="#FCA892"/>
</linearGradient>
<linearGradient id="paint1_linear_162_722" x1="1.56393" y1="2.08154" x2="1.56393" y2="6.07238" gradientUnits="userSpaceOnUse">
<stop stop-color="#FE724C"/>
<stop offset="1" stop-color="#FCA892"/>
</linearGradient>
<linearGradient id="paint2_linear_162_722" x1="8.28375" y1="4.56299" x2="8.28375" y2="8.10454" gradientUnits="userSpaceOnUse">
<stop stop-color="#FE724C"/>
<stop offset="1" stop-color="#FCA892"/>
</linearGradient>
<linearGradient id="paint3_linear_162_722" x1="2.223" y1="5.11279" x2="2.223" y2="8.10661" gradientUnits="userSpaceOnUse">
<stop stop-color="#FE724C"/>
<stop offset="1" stop-color="#FCA892"/>
</linearGradient>
<linearGradient id="paint4_linear_162_722" x1="6.58714" y1="0" x2="6.58714" y2="2.31219" gradientUnits="userSpaceOnUse">
<stop stop-color="#FE724C"/>
<stop offset="1" stop-color="#FCA892"/>
</linearGradient>
<linearGradient id="paint5_linear_162_722" x1="8.71412" y1="3.32861" x2="8.71412" y2="4.82386" gradientUnits="userSpaceOnUse">
<stop stop-color="#FE724C"/>
<stop offset="1" stop-color="#FCA892"/>
</linearGradient>
<linearGradient id="paint6_linear_162_722" x1="6.52228" y1="0.889648" x2="6.52228" y2="1.13598" gradientUnits="userSpaceOnUse">
<stop stop-color="#FE724C"/>
<stop offset="1" stop-color="#FCA892"/>
</linearGradient>
<linearGradient id="paint7_linear_162_722" x1="2.22538" y1="6.20117" x2="2.22538" y2="7.02587" gradientUnits="userSpaceOnUse">
<stop stop-color="#FE724C"/>
<stop offset="1" stop-color="#FCA892"/>
</linearGradient>
</defs>
</svg>
