<svg width="26" height="26" viewBox="0 0 26 26" fill="none" xmlns="http://www.w3.org/2000/svg">
<path d="M20.849 6.05023C19.964 4.60385 18.7213 3.40974 17.2407 2.58319C15.7601 1.75665 14.0916 1.32543 12.396 1.33112C10.7002 1.32504 9.0315 1.75612 7.55087 2.58271C6.07023 3.40929 4.82768 4.60359 3.94296 6.05023C3.2171 7.27772 2.75066 8.64099 2.57247 10.0558C2.39428 11.4707 2.50811 12.9071 2.90695 14.2762C4.62395 20.1812 10.3899 24.0141 11.9829 24.9761C12.1071 25.0505 12.2491 25.0898 12.3939 25.0898C12.5386 25.0898 12.6807 25.0505 12.8049 24.9761C14.3989 24.0111 20.1639 20.1762 21.8809 14.2762C22.2805 12.9073 22.395 11.4711 22.2175 10.0562C22.04 8.64134 21.5743 7.27796 20.849 6.05023ZM12.396 14.8792C11.4988 14.8789 10.6385 14.5224 10.0041 13.888C9.36974 13.2536 9.01317 12.3933 9.0129 11.4962C9.01317 10.599 9.36974 9.73869 10.0041 9.10431C10.6385 8.46993 11.4988 8.11349 12.396 8.11322C13.2933 8.11322 14.1538 8.46954 14.7884 9.10395C15.423 9.73835 15.7796 10.5988 15.7799 11.4962C15.7796 12.3935 15.423 13.254 14.7884 13.8884C14.1538 14.5228 13.2933 14.8792 12.396 14.8792Z" fill="#D3D1D8"/>
</svg>
